<svg width="64" height="64" viewBox="0 0 64 64" fill="none" xmlns="http://www.w3.org/2000/svg">
<rect width="64" height="64" rx="32" fill="black"/>
<path fill-rule="evenodd" clip-rule="evenodd" d="M48 32C48 32.5305 47.7893 33.0392 47.4142 33.4142C47.0391 33.7893 46.5304 34 46 34H22.828L31.416 42.584C31.6019 42.77 31.7494 42.9907 31.8501 43.2337C31.9507 43.4767 32.0025 43.7371 32.0025 44C32.0025 44.263 31.9507 44.5234 31.8501 44.7664C31.7494 45.0093 31.6019 45.2301 31.416 45.416C31.23 45.602 31.0093 45.7495 30.7663 45.8501C30.5234 45.9508 30.2629 46.0026 30 46.0026C29.737 46.0026 29.4766 45.9508 29.2336 45.8501C28.9907 45.7495 28.7699 45.602 28.584 45.416L16.584 33.416C16.3977 33.2302 16.2499 33.0095 16.1491 32.7666C16.0483 32.5236 15.9964 32.2631 15.9964 32C15.9964 31.737 16.0483 31.4765 16.1491 31.2335C16.2499 30.9905 16.3977 30.7698 16.584 30.584L28.584 18.584C28.9595 18.2085 29.4689 17.9975 30 17.9975C30.5311 17.9975 31.0404 18.2085 31.416 18.584C31.7915 18.9596 32.0025 19.4689 32.0025 20C32.0025 20.5311 31.7915 21.0405 31.416 21.416L22.828 30H46C46.5304 30 47.0391 30.2107 47.4142 30.5858C47.7893 30.9609 48 31.4696 48 32Z" fill="white"/>
</svg>
